<?xml version="1.0" encoding="UTF-8"?>
<svg id="Layer_1" data-name="Layer 1" xmlns="http://www.w3.org/2000/svg" xmlns:xlink="http://www.w3.org/1999/xlink" viewBox="0 0 128 128">
  <defs>
    <style>
      .cls-1 {
        fill: url(#radial-gradient);
      }
    </style>
    <radialGradient id="radial-gradient" cx="934.07" cy="-92.63" fx="934.07" fy="-92.63" r="49.96" gradientTransform="translate(998.07 -28.63) rotate(-180)" gradientUnits="userSpaceOnUse">
      <stop offset="0" stop-color="#ff4215"/>
      <stop offset="1" stop-color="#821215"/>
    </radialGradient>
  </defs>
  <path class="cls-1" d="M47.53,8.81c31.7.27,58.68,25.59,60.44,57.31,1.37,17.95-7.05,35.34-22.17,45.18-8.08,5.27-17.72,8.05-27.37,7.87-22.73-.19-41.1-20.7-38.28-43.31,1.55-12.95,11.96-24.14,24.76-26.57,5.42-1.09,11.18-.78,16.27,1.47,8.49,3.61,14.57,12.23,14.97,21.46.87,11.56-8.52,21.66-20.13,21.44,0,0,0-8.35,0-8.35,4.64-.22,8.83-3.53,9.99-7.97.4-1.44.44-2.96.25-4.43-.69-6.35-6.02-11.82-12.37-12.46-6.56-.65-13.33,2.65-16.95,8.11-6.49,9.47-1.99,23.19,6.92,29.41,6.21,4.49,13.56,5.22,20.77,3.4,13.32-3.29,23.15-15.47,22.96-29.26-.1-14.05-8.21-27.38-20.45-33.86-6-3.22-12.85-4.71-19.62-4.37,0,0,0-25.06,0-25.06h0Z"/>
</svg>